# xmcd CD database file
#
# Track frame offsets:
#	150
#	12370
#	23518
#	33562
#	45725
#	56381
#	69718
#	81789
#	93514
#	104949
#	114667
#	128376
#	141957
#	155360
#	168127
#	184607
#	216474
#	229114
#	242873
#	253580
#	275121
#	286617
#	299435
#	311642
#	323824
#
# Disc length: 4479 seconds
#
# Revision: 6
# Processed by: cddbd v1.5.2PL0 Copyright (c) Steve Scherf et al.
# Submitted via: CDex 1.70beta2
#
DISCID=6c117d19
DTITLE=Lifetime  - A Retrospective Of Soul, Blues, and Gospel -1956-1999 - CD1
DYEAR=2000
DGENRE=Soul
TTITLE0=(with The Highway Q.C.'s ) - I Dreamed Heaven Was Like This (J.Taylor) (1956)
TTITLE1=(wit The Soul Stirrers ) - Heaven Is My Home (Take 1) (L.Crume) (1958)
TTITLE2=(with The Soul Stirrers) The Love Of God (Take 7) (L.Crume) (1958)
TTITLE3=(with The Soul Stirrers) Out On A Hill (Take 1) (L.Crume) (1958)
TTITLE4=(with The Soul Stirrers) Until Then (Take 3)
TTITLE5=(with The Soul Stirrers) When The Gates Swing Open (Dorsey) (1959)
TTITLE6=Never, Never (Ed Townsend) (1-1962)
TTITLE7=Rome (Wasn't Built In A Day) (Cooke-Prudhomme) (1-1962)
TTITLE8=Dance What You Wanna (Cooke-white-Alexander) (2-1962)
TTITLE9=Baby, We've Got Love (Sam Cooke) (2-1962)
TTITLE10=I Had A Dream (I.Hayes-Porter) (1-1966)
TTITLE11=Easy Lovin' (previously unissued) (1-1966)
TTITLE12=I've Got To Love Somebody's Baby (I.Hayes-Porter) (6-1966)
TTITLE13=Just The One (I've Been Looking For) (Cropper-Floyd-Isbell) (6-1966)
TTITLE14=Part Time Love (Take 2) (Clay Hammond) (1-1966)
TTITLE15=Sixteen Tons (Take 6) (Merle Travis) (11-1966)
TTITLE16=Somebody's Sleeping In My Bed (Crutcher-Jones) (10-1967)
TTITLE17=Blues in the Night (Take 1) (Arlen-Mercer) (11-1966)
TTITLE18=Save Your Love For Me (Take 2) (Buddy Johnson) (date unknown)
TTITLE19=I Need Lots Of Love (previously unissued) (11-1966)
TTITLE20=You Can't Win With A Losing Hand (Take 3) (Cropper-Floyd-Isbell) (10-1967)
TTITLE21=Rumors (unknown) (1968)
TTITLE22=You Don't Know Like I Know (Take 3) (Hayes-Porter) (1-1966)
TTITLE23=Twenty Years From Today (Take 4) (Cropper-Crutcher-Jones) (1-1966)
TTITLE24=Twenty Years From Today (Take 7) (Cropper-Crutcher-Jones) (1-1966)
EXTD=Label: Fantasy Inc. - Stax Records\n3SCD-4432-2 YEAR: 2000
EXTT0=
EXTT1=
EXTT2=
EXTT3=
EXTT4=
EXTT5=
EXTT6=
EXTT7=
EXTT8=
EXTT9=
EXTT10=
EXTT11=
EXTT12=
EXTT13=
EXTT14=
EXTT15=
EXTT16=
EXTT17=
EXTT18=
EXTT19=
EXTT20=
EXTT21=
EXTT22=
EXTT23=
EXTT24=
PLAYORDER=
